<?xml version="1.0" standalone="no"?>
<!DOCTYPE svg PUBLIC "-//W3C//DTD SVG 20010904//EN"
 "http://www.w3.org/TR/2001/REC-SVG-20010904/DTD/svg10.dtd">
<svg version="1.0" xmlns="http://www.w3.org/2000/svg"
 width="600.000000pt" height="600.000000pt" viewBox="0 0 600.000000 600.000000"
 preserveAspectRatio="xMidYMid meet">
<metadata>
Created by potrace 1.14, written by Peter Selinger 2001-2017
</metadata>
<g transform="translate(0.000000,600.000000) scale(0.100000,-0.100000)"
fill="#000000" stroke="none">
<path d="M3936 5889 c-15 -33 -33 -90 -39 -128 l-10 -68 -61 31 c-153 78 -363
145 -536 171 -99 14 -533 14 -630 -1 -52 -8 -112 -16 -132 -19 -111 -13 -380
-106 -409 -141 -6 -8 -22 -14 -35 -14 -73 0 -339 -118 -489 -216 -147 -97
-282 -239 -378 -397 l-33 -55 -54 64 c-60 71 -98 101 -110 87 -18 -18 -60
-113 -66 -149 -12 -66 -7 -151 12 -206 10 -29 18 -62 19 -73 2 -18 -19 -61
-36 -75 -3 -3 -23 -30 -43 -60 -21 -30 -42 -58 -47 -61 -5 -3 -42 -5 -82 -3
-74 2 -131 -13 -220 -57 -55 -28 -127 -87 -127 -104 0 -39 116 -115 228 -149
30 -8 80 -33 112 -55 57 -38 58 -39 40 -56 -20 -18 -45 -85 -55 -145 -20 -123
-23 -150 -24 -193 -1 -27 3 -55 9 -62 8 -10 -1 -31 -39 -87 -100 -150 -156
-271 -206 -447 -29 -104 -35 -141 -50 -305 -3 -37 -13 -82 -21 -98 -17 -33
-43 -101 -50 -133 -11 -44 -19 -111 -17 -130 10 -95 17 -126 44 -178 l30 -60
-54 -56 c-119 -122 -148 -157 -224 -270 -34 -51 -60 -98 -57 -102 3 -5 1 -9
-4 -9 -10 0 -38 -60 -34 -72 1 -5 -3 -8 -10 -8 -6 0 -8 -3 -5 -6 3 -4 2 -14
-2 -23 -25 -45 -36 -201 -22 -285 10 -56 40 -129 61 -146 3 -3 16 -33 29 -68
31 -86 23 -113 -50 -185 -32 -32 -59 -63 -59 -70 0 -6 24 13 53 43 l54 55 9
-62 c8 -50 6 -69 -7 -100 -32 -77 -42 -143 -37 -254 l6 -109 -39 -35 -39 -35
0 -260 0 -260 3000 0 3000 0 0 479 0 479 -36 49 c-43 57 -88 99 -167 155 -54
39 -57 43 -51 72 4 17 8 43 8 58 1 16 3 28 5 28 2 0 27 -24 55 -52 29 -29 79
-73 111 -98 33 -25 63 -49 67 -55 5 -6 8 -3 8 7 0 9 -6 21 -14 25 -53 31 -194
160 -210 193 -7 14 -13 54 -14 90 -1 36 -4 74 -6 86 -2 12 -7 45 -11 74 -4 29
-14 77 -24 106 -16 51 -16 61 -1 142 9 48 24 105 33 127 10 21 19 46 20 55 2
8 6 21 10 27 15 24 21 89 22 218 0 189 -18 296 -72 435 -26 66 -101 192 -123
205 -20 13 -20 -1 0 -23 11 -12 20 -23 20 -26 0 -3 13 -24 29 -48 15 -24 34
-60 42 -80 7 -21 17 -38 22 -38 4 0 6 -4 3 -8 -3 -5 1 -19 8 -33 7 -13 11 -30
8 -37 -2 -6 0 -12 5 -12 4 0 9 -10 9 -22 2 -23 10 -69 21 -118 3 -14 7 -88 9
-165 2 -107 -1 -157 -14 -212 -19 -77 -32 -102 -33 -62 -2 84 -18 205 -39 297
-21 87 -123 322 -163 376 -13 17 -31 45 -40 63 -17 31 -16 32 13 57 17 13 30
29 30 35 0 6 4 11 8 11 9 0 45 59 48 80 2 8 7 31 12 50 8 32 8 187 -1 235 -5
31 -18 77 -29 110 -14 38 -85 182 -98 198 -5 7 -29 37 -52 67 -78 101 -162
187 -179 182 -5 -1 -8 2 -7 6 2 5 -28 40 -65 78 -158 159 -296 378 -432 686
-45 100 -46 119 -12 124 29 4 188 86 194 100 20 52 -139 274 -223 310 l-26 11
52 54 c55 57 140 192 140 221 0 9 4 19 9 23 9 5 7 42 -2 51 -16 16 -189 42
-260 39 -104 -5 -131 -10 -188 -40 l-46 -24 -21 27 c-12 14 -45 44 -73 67 -49
39 -51 43 -54 95 -3 57 -29 150 -52 185 -7 12 -31 34 -53 50 -23 17 -47 35
-53 40 -18 15 -58 39 -88 52 -24 10 -26 8 -53 -48z m1387 -2187 c10 -12 24
-28 30 -35 40 -42 137 -171 137 -183 0 -3 9 -18 19 -32 10 -15 20 -31 21 -37
4 -15 19 -58 30 -80 40 -85 53 -322 21 -374 -14 -21 -111 57 -106 84 35 183
-35 455 -169 654 -34 51 -23 53 17 3z m-4507 -30 c-3 -20 -8 -57 -11 -82 -15
-110 -54 -216 -102 -271 -7 -9 -41 -72 -74 -140 -34 -68 -65 -126 -69 -129 -4
-3 -28 -39 -54 -80 l-47 -75 6 68 c20 251 99 475 244 694 l54 82 29 -15 c27
-14 29 -19 24 -52z m4722 -717 l32 -30 -26 -40 c-14 -22 -37 -48 -51 -59 -25
-18 -25 -18 -46 3 -21 20 -21 21 -3 93 11 40 21 77 23 81 5 9 20 -2 71 -48z
m-5008 -9 c-19 -57 -39 -143 -42 -188 -2 -24 -17 -41 -18 -20 -1 4 -3 32 -6
63 -4 44 -1 64 13 90 31 55 65 109 68 109 2 0 -4 -24 -15 -54z m-76 -196 c3
-19 10 -53 15 -74 5 -22 11 -70 12 -107 3 -83 19 -161 45 -219 35 -76 11 -105
-40 -51 l-28 30 21 27 c29 37 18 43 -13 8 -26 -29 -26 -29 -32 -6 -3 12 -9 22
-13 22 -18 0 -42 115 -43 200 0 56 3 69 48 209 7 22 23 1 28 -39z m53 -497
c18 -16 17 -20 -19 -77 -34 -53 -49 -71 -156 -189 -164 -181 -238 -352 -245
-564 -2 -65 -17 -55 -41 26 -20 68 -15 275 7 297 4 4 7 14 7 22 0 33 119 248
163 294 7 7 23 27 36 43 12 17 59 69 104 118 l80 87 26 -22 c14 -13 31 -28 38
-35z m5217 -629 c4 -22 9 -51 11 -64 10 -53 14 -170 5 -170 -5 0 -28 39 -51
86 l-41 87 23 78 c23 77 24 79 36 51 6 -15 14 -46 17 -68z m-40 -169 c22 -47
43 -85 48 -85 5 0 6 -4 3 -10 -3 -5 -2 -10 3 -10 9 0 -3 -104 -14 -122 -7 -11
-96 63 -131 108 l-25 33 34 86 c18 47 35 85 38 85 3 -1 23 -39 44 -85z"/>
</g>
</svg>
